<svg xmlns="http://www.w3.org/2000/svg" viewBox="0 0 900 1125" width="900" height="1125"
     role="img" aria-label="Illustration of a honeycomb knit polo t-shirt in amber">
  <defs>
    <linearGradient id="bg" x1="0" y1="0" x2="0.4" y2="1">
      <stop offset="0%" stop-color="#f4f1ea"/>
      <stop offset="100%" stop-color="#ded7ca"/>
    </linearGradient>
    <pattern id="knit" width="26" height="22" patternUnits="userSpaceOnUse">
      <path d="M0 11c3.2-9 9.8-9 13 0 3.2 9 9.8 9 13 0" fill="none" stroke="#000" stroke-opacity="0.07" stroke-width="2"/>
      <path d="M-13 22c3.2-9 9.8-9 13 0 3.2 9 9.8 9 13 0" fill="none" stroke="#fff" stroke-opacity="0.10" stroke-width="2"/>
    </pattern>
    <filter id="soft" x="-30%" y="-60%" width="160%" height="220%">
      <feGaussianBlur stdDeviation="18"/>
    </filter>
  </defs>

  <rect width="900" height="1125" fill="url(#bg)"/>
  <ellipse cx="450" cy="849" rx="240" ry="30" fill="#3b3226" opacity="0.20" filter="url(#soft)"/>

  <g transform="translate(-10.5 133) scale(1.3745)">
<g fill="#c8912b"><path d="M190 150 108 182 84 300l86 24 62-140z"/><path d="M480 150l82 32 24 118-86 24-62-140z"/></g>
<g fill="url(#knit)"><path d="M190 150 108 182 84 300l86 24 62-140z"/><path d="M480 150l82 32 24 118-86 24-62-140z"/></g>
<g fill="#8a5f12" opacity="0.85"><path d="M84 300l86 24-8 30-86-24z"/><path d="M586 300l-86 24 8 30 86-24z"/></g>
<path d="M190 150h290l16 330a20 20 0 0 1-20 22H194a20 20 0 0 1-20-22z" fill="#c8912b"/>
<path d="M190 150h290l16 330a20 20 0 0 1-20 22H194a20 20 0 0 1-20-22z" fill="url(#knit)"/>
<path d="M310 152h50l-6 130h-38z" fill="#8a5f12" opacity="0.9"/>
<path d="M262 140l60 22-38 44-30-46z" fill="#8a5f12"/>
<path d="M408 140l-60 22 38 44 30-46z" fill="#8a5f12"/>
<circle cx="335" cy="196" r="7" fill="#f7f5f0" stroke="#8a5f12" stroke-width="3"/>
<circle cx="335" cy="244" r="7" fill="#f7f5f0" stroke="#8a5f12" stroke-width="3"/>
  </g>
</svg>